<?xml version="1.0" encoding="UTF-8" standalone="no"?>
<svg
   xml:space="preserve"
   width="872"
   height="889"
   viewBox="0 0 872 889"
   version="1.1"
   id="svg10"
   sodipodi:docname="1.svg"
   inkscape:version="1.4.2 (f4327f4, 2025-05-13)"
   xmlns:inkscape="http://www.inkscape.org/namespaces/inkscape"
   xmlns:sodipodi="http://sodipodi.sourceforge.net/DTD/sodipodi-0.dtd"
   xmlns="http://www.w3.org/2000/svg"
   xmlns:svg="http://www.w3.org/2000/svg"><sodipodi:namedview
     id="namedview10"
     pagecolor="#ffffff"
     bordercolor="#000000"
     borderopacity="0.25"
     inkscape:showpageshadow="2"
     inkscape:pageopacity="0.0"
     inkscape:pagecheckerboard="0"
     inkscape:deskcolor="#d1d1d1"
     inkscape:zoom="0.65635546"
     inkscape:cx="390.03256"
     inkscape:cy="302.42759"
     inkscape:window-width="1844"
     inkscape:window-height="963"
     inkscape:window-x="3255"
     inkscape:window-y="1711"
     inkscape:window-maximized="0"
     inkscape:current-layer="svg10" /><defs
     id="defs1"><path
       id="b"
       d="M586.572 71.608h176.733v80.749H586.572z" /><path
       id="a"
       d="M539.342 42.66h173.686v120.362H539.342z" /></defs><circle
     cx="438.12244"
     cy="451.92755"
     r="308.96298"
     style="fill:none;stroke:#000000;stroke-width:13.3098;stroke-dasharray:none;stroke-opacity:1"
     id="circle1" /><text
     xml:space="preserve"
     x="95.985"
     y="70.084"
     style="font-style:normal;font-variant:normal;font-weight:400;font-stretch:normal;font-size:42.6667px;font-family:&quot;La Bamba LET&quot;;-inkscape-font-specification:&quot;La Bamba LET&quot;;text-align:start;writing-mode:lr-tb;direction:ltr;text-anchor:start;fill:none;stroke:#000;stroke-width:3.77952756;stroke-dasharray:none"
     id="text1" /><path
     d="m 134.49641,446.89804 h 603.48252 v 10.05809 H 134.49641 Z"
     style="fill:#000000;fill-opacity:1;stroke:#000000;stroke-width:3.56445;stroke-dasharray:none"
     id="path5" /><path
     d="m 433.08727,141.6414 h 10.0694 v 620.47424 h -10.0694 z"
     style="fill:#000000;fill-opacity:1;stroke:#000000;stroke-width:3.55338;stroke-dasharray:none"
     id="path6" /><path
     d="m 278.818,186.40484 8.71056,-5.02904 154.4815,267.5698 -8.71056,5.02905 z"
     style="fill:#000000;fill-opacity:1;stroke:#000000;stroke-width:3.56445;stroke-dasharray:none"
     id="path7" /><path
     d="m 167.57074,301.33366 5.02905,-8.71056 267.5698,154.4815 -5.02904,8.71056 z"
     style="fill:#000000;fill-opacity:1;stroke:#000000;stroke-width:3.56445;stroke-dasharray:none"
     id="path8" /><path
     style="fill:#000000"
     d="m 806.5165,497.46829 c -5.65505,-1.65334 -14.13946,-7.98432 -14.13946,-10.55072 0,-0.36291 -0.66855,-1.39857 -1.48568,-2.30148 -2.26756,-2.50563 -2.82898,-9.67871 -1.03845,-13.26792 1.85874,-3.72592 1.85951,-3.74791 0.13112,-3.74791 -1.72578,0 -2.75223,-2.45795 -1.9258,-4.61158 0.47514,-1.2382 1.52438,-1.49006 4.52884,-1.08707 2.15073,0.28847 5.3355,0.11579 7.07727,-0.38375 4.59908,-1.31899 6.7127,-0.33174 6.7127,3.13544 0,1.60504 0.51283,5.06222 1.13962,7.68261 2.34893,9.82001 2.33124,9.78939 5.46527,9.46089 6.25136,-0.65525 10.42217,-2.38956 13.92325,-5.78957 2.32428,-2.25719 4.23065,-3.32977 5.23392,-2.94478 0.86792,0.33305 1.88194,0.11382 2.25338,-0.48718 0.37144,-0.60099 3.07471,-1.17874 6.00727,-1.28387 5.07683,-0.182 5.3683,-0.0553 6.09218,2.64882 1.01722,3.79983 -2.61236,11.82923 -4.49584,9.94575 -0.34048,-0.34047 -0.61905,0.58096 -0.61905,2.04762 0,1.46667 -0.45,2.66667 -1,2.66667 -0.55,0 -1,0.68912 -1,1.53138 0,0.84227 -0.7875,1.83288 -1.75,2.20138 -0.9625,0.36849 -2.44485,1.52654 -3.2941,2.57345 -0.84926,1.04691 -3.09926,2.08878 -5,2.31528 -8.58725,1.02327 -19.74729,1.14386 -22.81644,0.24654 z m 22.57286,-35.10404 c -0.36015,-3.9718 -0.15542,-6.73009 0.56387,-7.59678 0.8639,-1.04094 0.73889,-1.57927 -0.53189,-2.29043 -0.94936,-0.53129 -1.40911,-1.58669 -1.07289,-2.46288 0.38804,-1.0112 -0.13681,-1.72284 -1.54153,-2.09019 -1.17143,-0.30633 -2.12988,-0.90571 -2.12988,-1.33193 0,-0.67294 -3.42995,-1.98849 -6.5,-2.49307 -0.55,-0.0904 -1.99667,0.43541 -3.21482,1.16847 -1.21815,0.73305 -2.67207,1.33282 -3.23094,1.33282 -1.72157,0 -2.21838,-4.34204 -1.03352,-9.03268 0.62064,-2.45703 1.12103,-5.27898 1.11197,-6.271 -0.0203,-2.22406 2.77818,-3.45858 3.8626,-1.70394 0.61051,0.98783 1.106,1.0133 2.14908,0.11047 0.7456,-0.64534 3.42644,-2.45528 5.95743,-4.02209 4.77839,-2.95806 5.91744,-5.36971 5.88302,-12.45576 -0.0236,-4.86177 -2.42474,-11.73206 -4.50768,-12.89773 -1.03702,-0.58035 -4.1494,-1.0939 -6.91639,-1.14123 -5.79372,-0.0991 -7.08233,-2.06446 -3.62223,-5.52456 2.46465,-2.46465 2.6159,-3.9115 0.49402,-4.72574 -1.83796,-0.70529 -5.90352,1.2182 -9.43254,4.46271 -2.42292,2.22759 -2.4415,2.34222 -0.60268,3.71797 1.04353,0.78073 2.28421,1.18041 2.75706,0.88816 1.7608,-1.08823 2.073,2.89539 0.48749,6.22024 -0.90303,1.89367 -1.65618,4.66527 -1.67367,6.15911 -0.031,2.64446 -0.0722,2.66334 -1.56484,0.71607 -1.51811,-1.98053 -1.5533,-1.97566 -3.61321,0.5 -1.36805,1.64416 -2.23093,2.06995 -2.52057,1.24377 -0.66171,-1.88749 -2.26741,-0.43615 -2.28489,2.06525 -0.0113,1.61817 -0.2411,1.8346 -0.87895,0.82783 -0.72914,-1.15087 -0.94806,-1.15087 -1.40574,0 -0.3849,0.96784 -0.565,1.00065 -0.62105,0.11315 -0.0434,-0.6875 -0.75395,-1.25 -1.57895,-1.25 -0.825,0 -1.5,-0.62686 -1.5,-1.39301 0,-0.76616 -0.675,-1.65203 -1.5,-1.96862 -2.68219,-1.02925 -1.60439,-6.11382 3.0138,-14.21768 2.91756,-5.11966 5.12778,-7.92069 6.25,-7.92069 0.95491,0 2.6204,-0.79854 3.70109,-1.77453 1.08069,-0.97599 2.51411,-1.56377 3.18539,-1.30618 0.67128,0.2576 1.37875,-0.006 1.57215,-0.58658 0.40005,-1.20016 6.17154,-1.98488 16.04699,-2.18183 6.37992,-0.12723 6.90995,0.0372 9.21166,2.85706 1.34323,1.64563 2.32624,3.3918 2.18447,3.88037 -0.14177,0.48857 -2.11216,1.61357 -4.37865,2.5 -4.86419,1.90239 -5.71326,2.61281 -4.83028,4.04149 0.44393,0.71831 1.64027,0.55434 3.69039,-0.50582 1.66843,-0.86278 3.66789,-1.32525 4.44325,-1.02772 0.77536,0.29753 1.40974,0.10833 1.40974,-0.42045 0,-0.52878 1.82714,-0.88982 4.06032,-0.80231 4.96014,0.19435 6.33998,2.34942 7.97204,12.45094 2.28326,14.13217 2.28707,15.16457 0.0733,19.87425 -1.15809,2.46373 -2.11251,5.27192 -2.12093,6.24041 -0.013,1.4918 -0.15943,1.53295 -0.95836,0.26926 -1.30143,-2.0585 -2.95697,-0.24974 -3.99858,4.36862 -0.65064,2.88485 -0.43142,4.11141 1.07773,6.02999 2.48652,3.16109 2.47984,7.27248 -0.0131,8.06371 -2.73285,0.86737 -3.7838,3.94339 -1.10824,3.24372 1.10763,-0.28965 2.27938,-0.097 2.60389,0.42804 0.35815,0.5795 1.14908,0.4907 2.01261,-0.22596 1.16931,-0.97045 1.37601,-0.75655 1.16097,1.20144 -0.14388,1.31014 -0.71161,2.71958 -1.26161,3.13208 -0.63278,0.47458 -0.4875,1.08014 0.39562,1.64902 1.07717,0.69387 0.65031,1.28443 -1.87073,2.58811 -1.7965,0.929 -4.44557,1.90293 -5.88682,2.16428 -1.44126,0.26135 -3.33486,1.1217 -4.20801,1.91189 -0.87315,0.79018 -1.82711,1.4367 -2.11991,1.4367 -0.29281,0 -0.78683,-2.8062 -1.09783,-6.23601 z"
     id="path13" /><path
     style="fill:#000000"
     d="m 435.44784,885.07216 c -0.29558,-0.47826 -1.63484,-0.59413 -2.97614,-0.25748 -1.68541,0.42301 -2.44344,0.19247 -2.45402,-0.74633 -0.0127,-1.1253 -0.16041,-1.12952 -0.86084,-0.0246 -0.68077,1.07393 -0.96395,1.02522 -1.4533,-0.25 -0.33428,-0.87108 -1.66846,-1.58381 -2.96485,-1.58381 -1.29639,0 -3.39525,-1.10509 -4.66413,-2.45575 -1.26888,-1.35067 -2.76228,-2.36317 -3.31866,-2.25 -0.55639,0.11316 -1.40952,-1.25675 -1.89585,-3.04425 -0.89101,-3.27489 -2.32705,-4.25002 -3.05274,-2.07295 -0.2158,0.64738 -1.4908,-0.59012 -2.83334,-2.75 -2.26645,-3.64627 -2.46624,-5.04842 -2.79431,-19.61062 -0.31569,-14.01288 -0.14091,-16.14338 1.64076,-20 4.13253,-8.94532 4.13818,-9.00814 1.0442,-11.61155 l -2.83163,-2.38267 0.009,-13.1611 c 0.009,-12.77734 0.0966,-13.31317 3.0002,-18.37603 3.38163,-5.89638 6.39246,-8.17599 7.70376,-5.83282 0.71937,1.28544 1.45013,1.28079 5.94838,-0.0378 3.34389,-0.98023 5.29693,-2.1483 5.61302,-3.35702 0.26661,-1.01955 1.70629,-2.6541 3.19927,-3.63234 2.60612,-1.70759 3.01278,-1.70435 10.18302,0.0812 4.82828,1.20233 7.81225,2.50212 8.44091,3.67678 0.53484,0.99934 1.96909,1.82388 3.18724,1.8323 2.916,0.0202 5.06245,1.44181 4.5406,3.00735 -0.22989,0.68968 -2.40149,2.02948 -4.82578,2.97734 -2.42429,0.94786 -4.57854,2.23562 -4.78723,2.86169 -0.56306,1.68919 2.34253,1.37907 3.82596,-0.40836 0.92099,-1.10973 2.72125,-1.46286 6.37245,-1.25 l 5.0892,0.2966 0.50393,6 c 0.27717,3.3 0.86622,6.5625 1.30902,7.25 0.52153,0.80974 0.25599,1.25 -0.75393,1.25 -0.85746,0 -1.55902,0.39752 -1.55902,0.88337 0,1.36128 -4.24757,2.15606 -5.58604,1.04522 -0.79218,-0.65745 -2.07252,-0.58565 -3.82916,0.21473 -3.49987,1.59464 -4.39666,0.60026 -7.09729,-7.86968 -1.32964,-4.17015 -2.64756,-6.66406 -3.4289,-6.48855 -0.69802,0.15679 -1.80654,-0.16093 -2.46337,-0.70605 -2.09499,-1.73869 -8.3249,-0.68164 -11.04536,1.8741 -3.15387,2.96291 -4.54168,7.72689 -4.52899,15.54686 0.01,6.11958 1.02222,9.20942 2.68126,8.18408 0.50916,-0.31468 3.75837,-0.79658 7.22045,-1.07088 6.0652,-0.48055 6.40011,-0.38332 9.18605,2.66689 1.59024,1.7411 2.89135,2.78524 2.89135,2.32033 0,-0.46492 0.67005,-0.28922 1.48899,0.39044 0.81894,0.67967 1.24239,1.63477 0.94098,2.12245 -0.70438,1.13971 0.80162,1.12934 3.84157,-0.0264 2.06133,-0.78372 2.85527,-0.39394 5.60159,2.75 7.26466,8.31649 7.14244,7.83272 6.97225,27.59881 -0.1151,13.36706 -0.47374,17.84093 -1.49835,18.69128 -0.74087,0.61487 -1.34703,2.22313 -1.34703,3.57391 0,1.53457 -1.48604,3.92724 -3.96097,6.37756 -4.08519,4.04456 -5.46632,4.65725 -6.54911,2.90527 -0.90357,-1.462 -2.72895,-0.049 -2.08948,1.61746 0.29678,0.77338 -0.0677,1.39885 -0.81519,1.39885 -0.74359,0 -1.69296,-1.0125 -2.10971,-2.25 -0.73874,-2.19365 -0.76817,-2.18324 -1.17489,0.41537 -0.44428,2.83862 -3.30065,4.83185 -3.30065,2.30325 0,-0.80774 -0.45,-1.46862 -1,-1.46862 -0.55,0 -1,0.62254 -1,1.38342 0,1.56094 -4.7561,2.82023 -5.58515,1.4788 z m 11.2421,-22.75391 c 1.86436,-6.21137 1.26419,-21.96795 -1.0475,-27.5006 -2.76803,-6.62483 -11.99638,-9.33758 -16.37421,-4.81332 -2.89484,2.99167 -5.58666,9.05451 -5.30813,11.95561 0.11881,1.2375 -0.29651,2.25 -0.92293,2.25 -0.68388,0 -0.88533,-0.79911 -0.50418,-2 0.41637,-1.31188 0.18151,-1.99473 -0.68261,-1.98469 -2.42867,0.0282 -4.03945,1.70862 -3.46029,3.60984 0.62646,2.05653 1.13489,5.14954 2.15745,13.12485 0.6422,5.00877 1.63927,6.42817 2.98545,4.25 0.82599,-1.33648 2.5,-1.27606 2.5,0.0902 0,0.59963 1.2375,2.84002 2.75,4.97865 1.87492,2.65109 3.54553,3.91968 5.25,3.98663 1.375,0.054 4.3,0.64496 6.5,1.31322 3.91136,1.18809 4.00597,1.15868 4.26931,-1.32686 0.14812,-1.39802 0.99756,-4.96812 1.88764,-7.93355 z m -25.01858,-86.60831 c 0.31659,-0.825 1.20246,-1.5 1.96862,-1.5 1.89454,0 1.76491,1.64331 -0.18878,2.39301 -2.25844,0.86665 -2.42333,0.78392 -1.77984,-0.89301 z"
     id="path14" /><path
     style="fill:#000000"
     d="m 45.651671,493.06202 c 0,-0.84227 0.675,-1.79041 1.5,-2.10699 0.825,-0.31659 1.5,-0.93533 1.5,-1.375 0,-0.96298 -3.504606,-0.12504 -6.947407,1.66111 -3.491568,1.81145 -6.44435,-0.23381 -6.87389,-4.76122 -0.413634,-4.35977 -2.038967,-6.13687 -2.833599,-3.0982 -0.479396,1.83321 -0.858834,2.03021 -2.033183,1.05559 -2.704826,-2.24481 -4.21947,-6.5573 -4.662207,-13.27422 -0.409744,-6.21637 -0.275808,-6.78293 1.830352,-7.74256 1.753609,-0.799 2.871489,-0.64289 4.89619,0.68375 1.443059,0.94553 2.623744,2.11739 2.623744,2.60413 0,1.49218 3.026051,0.98068 3.638374,-0.61501 1.114593,-2.90458 2.986072,-1.44424 4.805749,3.75 1.011567,2.8875 2.675467,6.179 3.697547,7.31445 2.2489,2.49834 2.29434,3.1424 0.35833,5.07841 -2.326108,2.32611 -1.80397,2.99103 2,2.54693 2.8626,-0.33419 3.52155,-0.07 3.61831,1.4508 0.0651,1.02268 0.407,0.50941 0.75983,-1.14059 0.35282,-1.65 1.08708,-3.0117 1.63168,-3.02599 3.08973,-0.0811 6.39495,-3.8988 7.60393,-8.78293 1.70394,-6.88369 1.78434,-20.89172 0.12309,-21.44547 -0.68026,-0.22675 -1.23684,-1.04978 -1.23684,-1.82894 0,-0.77917 -0.3949,-1.41667 -0.87756,-1.41667 -1.4121,0 -3.17331,2.6088 -2.36376,3.50134 0.40772,0.44952 -0.10322,0.51286 -1.13543,0.14074 -1.03221,-0.37212 -2.4814,-0.17477 -3.22043,0.43857 -1.81766,1.50853 -11.080463,0.20178 -11.796501,-1.66418 -0.298952,-0.77906 -1.232673,-1.41647 -2.074934,-1.41647 -0.842262,0 -1.531385,-0.66375 -1.531385,-1.475 0,-1.07772 -0.744779,-1.32604 -2.765173,-0.92197 -3.19624,0.63925 -6.444163,-2.39024 -9.75937,-9.10303 -1.753038,-3.54964 -1.962267,-5.94271 -1.858309,-21.25454 0.11587,-17.06629 0.146859,-17.29742 2.840251,-21.18399 1.86323,-2.68864 3.220059,-3.73874 4.296897,-3.32551 0.986869,0.37869 1.322594,0.19747 0.900221,-0.48595 -0.370465,-0.59942 0.367137,-1.91339 1.639116,-2.91994 1.271979,-1.00654 2.590003,-2.55987 2.928942,-3.45185 0.338938,-0.89198 2.594592,-2.57948 5.012563,-3.75 5.331032,-2.58071 10.568402,-2.80375 11.457072,-0.48792 0.57335,1.49412 0.74454,1.48289 1.92096,-0.12596 1.19015,-1.62763 1.58961,-1.64786 5.08918,-0.25784 4.25213,1.68895 5.76352,5.33838 2.61779,6.32097 -4.17081,1.30278 -8.74289,3.72328 -7.72614,4.0903 0.6017,0.21719 3.14789,-0.48551 5.65821,-1.56156 2.51032,-1.07604 4.7664,-1.75427 5.0135,-1.50716 0.24711,0.2471 1.02757,-0.2475 1.73435,-1.09913 1.12246,-1.35247 1.90838,-0.88099 6.21078,3.72584 2.70914,2.90083 5.17093,5.13531 5.47064,4.96551 0.29972,-0.16981 1.12788,0.81488 1.84036,2.18819 1.24722,2.40403 0.76624,7.72736 -0.94894,10.50259 -0.38002,0.61487 -0.21438,1.11795 0.36808,1.11795 0.58608,0 1.05902,1.97952 1.05902,4.43261 0,3.45005 -0.4141,4.56405 -1.86812,5.02553 -1.02746,0.32611 -2.65826,1.46602 -3.62399,2.53315 -1.71356,1.89345 -1.67802,1.91789 1.47447,1.01377 3.02591,-0.86782 3.19284,-0.78655 2.63765,1.28424 -0.32599,1.21589 -0.59885,2.94711 -0.60636,3.84716 -0.01,1.1538 -1.26713,1.82696 -4.26365,2.28239 -2.3375,0.35526 -6.23022,1.98135 -8.65048,3.61354 -2.42027,1.63219 -4.78277,2.96761 -5.25,2.96761 -1.40033,0 -0.96402,-1.58639 0.90048,-3.27404 1.50191,-1.35945 1.74721,-3.47248 1.73032,-14.90498 -0.0165,-11.16757 -0.31932,-13.82109 -1.87327,-16.41467 -2.21429,-3.69569 -7.45728,-5.84459 -12.12391,-4.96912 -2.55539,0.47939 -3.572,0.22644 -4.29707,-1.06918 -0.750103,-1.34037 -1.184813,-0.60111 -2.067914,3.51665 -0.614986,2.86758 -1.118156,6.26006 -1.118156,7.53883 0,1.27878 -0.675,4.23821 -1.5,6.57651 -1.793218,5.08252 -1.813858,5.31201 -0.399115,4.43765 0.754285,-0.46617 1.028494,0.85331 0.870954,4.19098 -0.551736,11.68915 -0.797833,11.19226 6.890781,13.91287 1.10058,0.38944 1.12125,0.77301 0.1075,1.9945 -2.1545,2.59602 -0.52169,2.54317 4.90005,-0.15859 4.83285,-2.40831 5.35643,-2.48232 7.00527,-0.99013 2.40735,2.17861 5.2651,2.02859 10.18259,-0.53454 2.26579,-1.181 5.17823,-2.26347 6.47209,-2.4055 2.78195,-0.30538 3.50315,1.91298 3.60925,11.10185 0.0378,3.273 0.40336,6.17591 0.81236,6.45091 1.24299,0.83576 -0.0537,13 -1.38573,13 -0.8416,0 -1.06448,1.7853 -0.75575,6.05349 0.37967,5.24888 0.13873,6.37192 -1.8127,8.44912 -1.2895,1.37261 -1.99671,3.05718 -1.6561,3.94481 0.69405,1.80868 -3.66639,6.63501 -8.03604,8.89465 -1.61284,0.83403 -5.66474,1.82554 -9.00421,2.20336 -5.10751,0.57785 -6.22103,0.42024 -7.0116,-0.99243 -0.84889,-1.51688 -1.06535,-1.52813 -2.23716,-0.11619 -1.66055,2.00085 -4.05244,2.01962 -4.05244,0.0318 z m 29,-10.43724 c 0,-0.53273 -0.675,-0.70959 -1.5,-0.39301 -0.825,0.31659 -1.5,0.75246 -1.5,0.96862 0,0.21615 0.675,0.39301 1.5,0.39301 0.825,0 1.5,-0.43588 1.5,-0.96862 z m -3,-42.0904 c 0,-0.51754 -0.675,-0.94098 -1.5,-0.94098 -1.54641,0 -1.9867,1.17996 -0.86052,2.30615 0.79893,0.79893 2.36052,-0.10419 2.36052,-1.36517 z"
     id="path15" /><path
     style="fill:#000000"
     d="m 407.13539,125.16266 c -0.55,-0.23137 -0.94907,-2.55834 -0.88683,-5.17105 0.0623,-2.61272 -0.33035,-5.31289 -0.87244,-6.00039 -0.67087,-0.85082 -0.60832,-1.25 0.19584,-1.25 0.64981,0 0.90335,-0.45 0.56343,-1 -0.33992,-0.55 -0.0933,-1 0.54797,-1 0.6413,0 0.92681,-0.62334 0.63446,-1.3852 -0.29236,-0.76186 0.16932,-2.38583 1.02594,-3.60883 1.31009,-1.87041 1.33782,-2.35924 0.17456,-3.07736 -0.76061,-0.46956 -1.43078,-2.45121 -1.48925,-4.403682 -0.0585,-1.95246 -0.86476,-4.38798 -1.79172,-5.41227 -1.69323,-1.871 -1.8116,-4.09183 -0.27807,-5.21734 0.45314,-0.33258 0.18498,-1.2436 -0.59591,-2.02449 -1.3061,-1.3061 -1.40081,-4.47018 -0.22953,-7.66825 0.26135,-0.71358 1.79503,-1.75753 3.40819,-2.31988 3.16061,-1.10179 4.73987,-3.63619 3.21562,-5.16044 -0.59106,-0.59106 -1.77978,0.0187 -3.18346,1.63311 -1.23209,1.41703 -2.56212,2.37743 -2.95562,2.13423 -0.39351,-0.2432 -0.63051,-3.71535 -0.52667,-7.71589 0.10384,-4.00054 -0.275,-8.39871 -0.84186,-9.77371 -0.95832,-2.32454 -1.14104,-3.90718 -1.48532,-12.86501 -0.12849,-3.34312 -0.14541,-3.35447 -2.60099,-1.74552 -3.41388,2.23686 -8.76651,5.46534 -10.32147,6.22547 -1.98429,0.97001 -2.65512,-0.32315 -2.68214,-5.17035 -0.0136,-2.44102 -0.30717,-4.43965 -0.65237,-4.4414 -0.86959,-0.004 -0.30151,-4.979381 0.91387,-8.003191 1.27079,-3.16167 5.42991,-8 6.87695,-8 1.557,0 7.33682,-6.104409 7.33682,-7.748859 0,-0.75304 0.46971,-1.07888 1.0438,-0.72407 0.5741,0.35481 1.60101,0.18268 2.28203,-0.38252 1.15242,-0.95642 9.2737,-0.9256 12.67417,0.0481 6.69533,1.91717 7.00294,2.50835 6.57852,12.643079 -0.1535,3.66534 0.0901,7.14415 0.54128,7.73068 0.4512,0.58652 0.3732,2.685901 -0.17333,4.665281 -0.54653,1.97938 -0.83624,5.3245 -0.64379,7.43359 0.19245,2.10909 -0.22898,5.01516 -0.9365,6.45793 -0.70753,1.44276 -1.02485,2.88478 -0.70515,3.20448 0.3197,0.31969 -0.8271,3.07675 -2.54843,6.12678 -2.38551,4.22689 -2.77099,5.54552 -1.62115,5.54552 0.8297,0 1.50855,0.70156 1.50855,1.55902 0,0.87898 0.47971,1.26254 1.09977,0.87932 0.72794,-0.44989 0.69421,0.0781 -0.0998,1.56166 -0.65975,1.23274 -0.75179,1.96463 -0.20455,1.62642 1.50063,-0.92744 2.00395,1.33706 1.55696,7.00504 -0.22148,2.80836 0.067,6.34159 0.64115,7.85161 0.94083,2.47455 0.68956,3.07963 -2.54606,6.13122 -1.97445,1.86214 -4.23286,3.38571 -5.0187,3.38571 -1.28099,0 -1.86029,1.1941 -1.55922,3.214012 0.0585,0.39271 -0.62458,0.4335 -1.51803,0.0906 -1.1191,-0.42944 -1.46994,-0.18492 -1.12777,0.78599 0.27318,0.77514 1.45958,1.30216 2.63645,1.17114 1.17687,-0.13102 2.14666,0.31898 2.15508,1 0.01,0.80708 0.34755,0.71593 0.96949,-0.26179 0.78896,-1.24028 1.30575,-1.2821 2.98469,-0.24153 1.19978,0.74361 2.03051,0.84589 2.03051,0.25 0,-0.55466 0.39754,-1.00847 0.88342,-1.00847 1.53882,0 1.77231,4.27737 0.61737,11.30997 -0.92046,5.60483 -1.63887,7.23541 -4.05958,9.21404 -2.71358,2.218 -7.99986,3.13475 -10.94121,1.89743 z m 64.48412,-0.34163 c -1.93373,-0.37888 -7.55873,-0.61631 -12.5,-0.52762 -4.94127,0.0887 -9.54662,-0.27939 -10.23412,-0.81792 -0.83451,-0.65369 -1.25,-0.6165 -1.25,0.1119 0,1.45383 -3.04782,0.29865 -5.28656,-2.0037 -1.37141,-1.41039 -1.54755,-2.28392 -0.75799,-3.75923 0.71939,-1.34419 0.70118,-2.03103 -0.0606,-2.28495 -1.31473,-0.43824 0.6049,-8.48108 2.4342,-10.19879 1.10291,-1.03563 9.58004,-5.354672 17.89944,-9.119642 4.56313,-2.06506 6.77149,-6.16593 6.77149,-12.57448 0,-4.4166 -1.86167,-7.82037 -2.77639,-5.0762 -0.21694,0.6508 -0.75799,0.95859 -1.20235,0.68396 -0.44435,-0.27462 -1.09411,0.64098 -1.4439,2.03467 -0.3498,1.39369 -1.0728,2.26402 -1.60668,1.93407 -0.53387,-0.32995 -0.97068,0.0875 -0.97068,0.92772 0,0.92506 -0.57311,1.30771 -1.45294,0.97009 -1.16955,-0.4488 -1.22015,-0.93029 -0.25945,-2.46862 0.65642,-1.05109 1.76881,-1.91107 2.47199,-1.91107 0.85662,0 1.07607,-0.80656 0.66504,-2.44424 -0.48788,-1.94385 0.12239,-3.11959 2.98095,-5.74308 1.98037,-1.81752 3.59441,-4.26064 3.59441,-5.44075 0,-1.18122 1.1213,-2.87661 2.5,-3.77997 1.50077,-0.98334 2.5,-2.58381 2.5,-4.00423 0,-3.27419 2.99882,-6.66128 7.07499,-7.991 l 3.42501,-1.1173 -0.36093,-6.98972 c -0.42873,-8.302911 -1.28991,-10.249441 -4.91793,-11.116161 -1.49663,-0.35754 -3.17114,-0.9127 -3.72114,-1.23369 -2.91861,-1.70336 -10.5,0.80505 -10.5,3.47408 0,0.76233 -0.46114,1.38606 -1.02475,1.38606 -1.35429,0 -3.06909,4.534311 -3.57008,9.440121 -0.22131,2.16707 -0.84023,4.21073 -1.37537,4.54146 -0.53514,0.33074 -0.76181,1.76594 -0.50369,3.18935 0.28479,1.57057 -0.11951,3.07666 -1.02841,3.83098 -1.25026,1.03762 -1.4977,0.89232 -1.4977,-0.87947 0,-1.16734 -0.45,-2.12244 -1,-2.12244 -0.55,0 -1,0.62252 -1,1.38337 0,2.45603 -4.05811,2.62592 -7.37345,0.30867 -1.7196,-1.2019 -3.33452,-2.31977 -3.5887,-2.48414 -0.25417,-0.16437 0.0778,-1.16351 0.73783,-2.22031 0.81087,-1.29842 0.90036,-2.70946 0.27599,-4.3517 -0.50819,-1.33663 -0.65271,-2.70151 -0.32116,-3.03307 0.33155,-0.33155 0.0778,-0.60282 -0.56384,-0.60282 -1.40354,0 -1.62721,-9.597341 -0.24361,-10.452451 0.50769,-0.31377 1.22517,-1.94597 1.59442,-3.62711 0.63218,-2.87831 8.3929,-11.7738 10.50884,-12.045439 3.37453,-0.43322 9.97368,-3.1691 9.97368,-4.13491 0,-0.47197 0.45,-0.58001 1,-0.24009 0.55,0.33992 1,0.12564 1,-0.47617 0,-0.78432 0.5664,-0.79107 2,-0.0238 1.1,0.5887 2,1.72953 2,2.53518 0,0.80565 0.50248,1.46482 1.11663,1.46482 0.61415,0 0.88916,-0.86985 0.61114,-1.93299 -0.43463,-1.66204 -0.18098,-1.80962 1.80952,-1.05283 1.27325,0.48409 3.47324,0.67013 4.88886,0.41343 1.41562,-0.2567 2.57385,-0.11777 2.57385,0.30872 0,0.77707 5.42431,3.508869 6.52173,3.284469 0.50765,-0.103799 3.56385,3.03799 7.73152,7.94803 0.68571,0.80786 1.96148,3.05786 2.83504,5 1.86805,4.15317 2.50355,15.031171 0.87813,15.031171 -0.59645,0 -0.79416,0.46971 -0.43935,1.0438 0.35481,0.5741 0.19464,1.5866 -0.35594,2.25 -0.55058,0.66341 -1.03979,1.54348 -1.08712,1.95571 -0.0473,0.41224 -1.42302,3.57918 -3.05708,7.03767 -2.92207,6.18456 -3.06415,6.31224 -8.62503,7.75048 -5.05024,1.30618 -5.78702,1.83609 -6.89955,4.96234 -1.14896,3.22861 -2.43915,8.59357 -4.02812,16.75 -0.44909,2.30523 -1.1859,3.25 -2.53463,3.25 -1.19427,0 -2.13487,0.92983 -2.52896,2.5 -0.3451,1.375 -1.02867,2.5 -1.51905,2.5 -0.49037,0 -0.89159,1.07686 -0.89159,2.39301 0,1.31616 -0.675,2.65203 -1.5,2.968622 -0.94386,0.36219 -1.5,1.89285 -1.5,4.12842 0,2.92504 0.48593,3.75991 2.75,4.72475 1.5125,0.64456 3.57814,1.86644 4.59032,2.71529 1.65925,1.39151 1.95442,1.39067 3,-0.009 1.09614,-1.46685 4.73065,-1.63838 18.93129,-0.89346 0.97439,0.0511 1.51033,0.5157 1.19099,1.03241 -0.31935,0.51671 -0.049,0.93948 0.60083,0.93948 0.83336,0 0.77709,0.49851 -0.19099,1.69196 -0.93255,1.14966 -0.9718,1.45126 -0.12244,0.94098 1.76329,-1.05935 1.56007,0.86484 -0.25,2.36706 -0.825,0.68469 -1.5,1.87593 -1.5,2.6472 0,1.922 -4.86624,3.7087 -6.47181,2.3762 -0.85571,-0.71018 -2.26028,-0.49906 -4.62836,0.69571 -4.00978,2.02304 -6.16436,2.29162 -10.91571,1.3607 z M 450.63539,93.800238 c 0,-0.51754 0.45,-1.2191 1,-1.55902 0.55,-0.33992 1,0.0835 1,0.94098 0,0.85746 -0.45,1.55902 -1,1.55902 -0.55,0 -1,-0.42344 -1,-0.94098 z"
     id="path16" /><path
     style="fill:#000000;stroke:#000000;stroke-width:0"
     d="M 455.71577,299.96046 V 164.4915 l 13.28014,0.9335 c 50.5351,3.55226 99.01229,21.60256 143.89859,53.58008 6.38845,4.55122 19.59392,16.15938 29.34551,25.79592 37.86798,37.42131 62.25307,79.85576 74.90962,130.3562 4.14788,16.55027 7.68861,40.35512 7.68861,51.69162 v 8.5806 H 590.277 455.71577 Z"
     id="path18" /></svg>
